<svg width="24" height="24" viewBox="0 0 24 24" fill="none" xmlns="http://www.w3.org/2000/svg">
<g clip-path="url(#clip0_1964_522)">
<path d="M23.5 23C20.017 23 17.358 22.724 15.191 22.381C19.725 20.838 23 16.549 23 11.5C23 5.159 17.841 0 11.5 0C5.159 0 0 5.159 0 11.5C0 17.841 5.159 23 11.5 23C11.924 23 12.341 22.973 12.753 22.928C12.8 22.955 12.848 22.979 12.904 22.99C15.462 23.49 18.721 24 23.5 24C23.776 24 24 23.776 24 23.5C24 23.224 23.776 23 23.5 23ZM9.225 18.514C8.892 18.156 7.911 16.986 7.369 15.119C8.15 16.009 9.209 16.649 10.412 16.891C10.339 17.223 10.202 17.54 9.996 17.823C9.784 18.115 9.519 18.344 9.225 18.514ZM13.786 6.504C13.089 6.184 12.316 6 11.5 6C10.684 6 9.911 6.184 9.214 6.504C9.078 6.196 9 5.858 9 5.5C9 4.122 10.121 3 11.5 3C12.879 3 14 4.122 14 5.5C14 5.858 13.922 6.196 13.786 6.504ZM13.004 17.823C12.798 17.54 12.661 17.223 12.588 16.891C14.171 16.572 15.507 15.57 16.281 14.208C16.572 14.377 16.839 14.596 17.05 14.885C17.86 16 17.612 17.567 16.496 18.377C15.379 19.187 13.812 18.937 13.004 17.823ZM16.961 12.131C16.985 11.923 17 11.714 17 11.5C17 10.067 16.444 8.764 15.543 7.784C15.799 7.556 16.098 7.377 16.434 7.268C16.689 7.185 16.95 7.144 17.209 7.144C17.599 7.144 17.985 7.236 18.342 7.417C18.937 7.72 19.378 8.237 19.584 8.872C20.01 10.184 19.29 11.597 17.98 12.022C17.644 12.132 17.3 12.164 16.961 12.131ZM6.566 7.269C6.902 7.378 7.201 7.556 7.457 7.785C6.556 8.764 6 10.067 6 11.5C6 11.714 6.015 11.923 6.039 12.13C5.7 12.164 5.355 12.131 5.021 12.023C3.71 11.597 2.991 10.184 3.417 8.873C3.623 8.238 4.064 7.722 4.659 7.418C5.015 7.237 5.401 7.145 5.79 7.145C6.051 7.145 6.312 7.186 6.566 7.269ZM5.95 14.885C6.027 14.779 6.121 14.695 6.211 14.605C6.631 16.684 7.587 18.116 8.174 18.834C7.599 18.881 7.006 18.742 6.503 18.377C5.389 17.566 5.141 16 5.95 14.885Z" fill="black"/>
</g>
<defs>
<clipPath id="clip0_1964_522">
<rect width="24" height="24" fill="white"/>
</clipPath>
</defs>
</svg>
